<svg id="Layer_1" data-name="Layer 1" xmlns="http://www.w3.org/2000/svg" viewBox="0 0 162.61 45"><path d="M625.53,410.65h3.92l-4.3-2.27.11-.92c2.17-.49,4.32-1.14,6.52-1.44,5-.69,9.61,1.25,14.38,2.3,6.47,1.42,13.13,2,19.71,2.93a38.09,38.09,0,0,0,13.84-.82c3.42-.76,7.36.91,11.08,1.4a67,67,0,0,0,9.34.94c6.42-.08,12.85-.52,19.27-.78.12,0,.24.24.7.74-5.67,2.49-11.72.27-17.28,1.61V415a53.07,53.07,0,0,0,5.47.56c8.23.07,16.47.35,24.68,0,8.74-.42,17.44-1.57,26.16-2.28,5.18-.42,10.37-.57,15.55-.95,1.79-.13,3.54-.69,5.33-.85a17.72,17.72,0,0,1,3.31.3l.1,1.31c-2,.47-4,1.11-6,1.38-3.58.47-7.2.77-10.8,1-8.48.61-17,1.22-25.43,1.71-3.17.18-6.36,0-9.54.05a4.55,4.55,0,0,0-2.95,1.16c3.15.14,6.54,1.11,9.38.24,4.15-1.26,8.19-.6,12.25-.81s7.94-.14,11.9,0c1.82.08,3.64,1,5.43.94,3.18-.18,6.33-.87,9.57-1.36-1,1.69-2.3,2.07-8.81,2.65-.27,1.37,0,2,1.69,2,5.48-.11,10.95,0,16.43,0l.13.84a25.82,25.82,0,0,1-4.7.8c-6.53-.06-13.06-.47-19.59-.39-4.69,0-9.38.65-14.07,1a10.61,10.61,0,0,0-2.17.8h28.38l.16.8c-3.74,2.2-8.28,1.18-12.27,2.7,4.91,1.38,9.85-1.4,14.76-.28l.18.79-23.86,5.35,0,.33,17.06-2.37.16.89a51,51,0,0,1-5.28,1.2c-6.8.83-13.61,1.61-20.43,2.28-4.85.47-9.75.51-14.58,1.14a35.12,35.12,0,0,0-8.23,2.57,60,60,0,0,0,20.58-.36c6.63-1.36,13.29-2.56,19.94-3.83l.23.84c-4.59,1.33-9.12,2.94-13.78,3.93Q733,444.57,716.6,447.5a114.14,114.14,0,0,1-12.68,1.27c-11.56.78-23.13,1.75-34.7,2.08-6.58.18-13.18-.71-19.77-1.18a12.65,12.65,0,0,1-4.72-.85c-1.2-.61-2-2.07-2.92-3.15l3.05-2.26L634.5,439.6l.12-.73,2.42-1c-1.54,0-2.36,0-3.17,0-2.66-.11-3.66-1.22-3.71-3.82,0-1.42-.29-2.84-.45-4.26l-.7-.06,1.83-2.1-1.24-1.94,2.17-.61.18-.81-4.51-1.71a4.11,4.11,0,0,1,.85-.49,9.82,9.82,0,0,1,1.23-.15l-5.45-4,.2-.6h5.8C627.93,415.18,623.06,415.59,625.53,410.65Zm115.56,23.61.16.94,19.63-3.47-.14-.84Z" transform="translate(-624.07 -405.87)"/></svg>